<?xml version="1.0" standalone="no"?>
<!DOCTYPE svg PUBLIC "-//W3C//DTD SVG 20010904//EN"
 "http://www.w3.org/TR/2001/REC-SVG-20010904/DTD/svg10.dtd">
<svg version="1.0" xmlns="http://www.w3.org/2000/svg"
 width="80.000000pt" height="80.000000pt" viewBox="0 0 80.000000 80.000000"
 preserveAspectRatio="xMidYMid meet">

<g transform="translate(0.000000,80.000000) scale(0.100000,-0.100000)"
fill="#000000" stroke="none">
<path d="M2 643 l3 -126 194 -130 c219 -146 193 -141 302 -60 36 27 118 82
182 123 l116 75 0 123 c1 67 -1 122 -4 122 -3 0 -38 -23 -77 -52 -110 -78
-309 -208 -318 -208 -5 0 -97 59 -205 130 l-196 130 3 -127z"/>
<path d="M0 220 l0 -110 91 0 c76 0 98 4 126 21 19 12 32 26 30 33 -3 12 -225
166 -239 166 -4 0 -8 -49 -8 -110z"/>
<path d="M705 275 c-152 -95 -235 -150 -235 -157 0 -5 32 -8 70 -8 69 0 71 1
165 63 l95 62 0 43 c0 27 -4 42 -12 41 -7 0 -44 -20 -83 -44z"/>
</g>
</svg>
